HIERARCHY
ROOT WRIST
{
	OFFSET 0.000000 0.000000 0.000000
	CHANNELS 6 Xposition Yposition Zposition Yrotation Xrotation Zrotation
	JOINT THUMB_CMC_FE
	{
		OFFSET -0.225143 0.117753 -0.062308
		CHANNELS 3 Yrotation Xrotation Zrotation
		JOINT THUMB_CMC_AA
		{
			OFFSET -0.212856 -0.150507 0.098851
			CHANNELS 3 Yrotation Xrotation Zrotation
			JOINT THUMB_MCP_FE
			{
				OFFSET 0.322503 -0.167445 -0.031436
				CHANNELS 3 Yrotation Xrotation Zrotation
				JOINT THUMB_IP_FE
				{
					OFFSET -0.295233 -0.236404 0.025845
					CHANNELS 3 Yrotation Xrotation Zrotation
					End Site
					{
						OFFSET 0.000000 0.000000 0.000000
					}
				}
			}
		}
	}
	JOINT INDEX_MCP
	{
		OFFSET -1.076913 0.264198 -0.014768
		CHANNELS 3 Yrotation Xrotation Zrotation
		JOINT INDEX_PIP_FE
		{
			OFFSET -0.425053 0.013289 0.013619
			CHANNELS 3 Yrotation Xrotation Zrotation
			JOINT INDEX_DIP_FE
			{
				OFFSET -0.271505 -0.024898 0.000550
				CHANNELS 3 Yrotation Xrotation Zrotation
				End Site
				{
					OFFSET 0.000000 0.000000 0.000000
				}
			}
		}
	}
	JOINT MIDDLE_MCP
	{
		OFFSET -1.072991 0.019362 0.038780
		CHANNELS 3 Yrotation Xrotation Zrotation
		JOINT MIDDLE_PIP_FE
		{
			OFFSET -0.480704 0.002618 0.028696
			CHANNELS 3 Yrotation Xrotation Zrotation
			JOINT MIDDLE_DIP_FE
			{
				OFFSET -0.307486 -0.031129 -0.000643
				CHANNELS 3 Yrotation Xrotation Zrotation
				End Site
				{
					OFFSET 0.000000 0.000000 0.000000
				}
			}
		}
	}
	JOINT RING_MCP
	{
		OFFSET -0.994992 -0.195930 -0.005938
		CHANNELS 3 Yrotation Xrotation Zrotation
		JOINT RING_PIP_FE
		{
			OFFSET -0.436995 0.003792 0.019994
			CHANNELS 3 Yrotation Xrotation Zrotation
			JOINT RING_DIP_FE
			{
				OFFSET -0.295558 -0.038341 -0.006642
				CHANNELS 3 Yrotation Xrotation Zrotation
				End Site
				{
					OFFSET 0.000000 0.000000 0.000000
				}
			}
		}
	}
	JOINT PINKY_MCP
	{
		OFFSET -0.873858 -0.393246 -0.086282
		CHANNELS 3 Yrotation Xrotation Zrotation
		JOINT PINKY_PIP_FE
		{
			OFFSET -0.343972 -0.016492 0.013445
			CHANNELS 3 Yrotation Xrotation Zrotation
			JOINT PINKY_DIP_FE
			{
				OFFSET -0.224713 -0.036309 -0.010265
				CHANNELS 3 Yrotation Xrotation Zrotation
				End Site
				{
					OFFSET 0.000000 0.000000 0.000000
				}
			}
		}
	}
}
MOTION
Frames: 18
Frame Time: 0.008333334
2.703377 3.940615 4.795529 129.953700 -57.779020 61.080400 -61.461180 4.834478 -62.132200 -119.353000 -30.976930 -6.818176 112.864000 -65.843260 54.788590 -4.562073 -8.459839 26.908530 155.389000 3.046266 -178.495400 41.978550 -86.125550 -36.345210 2.052623 1.704993 10.755910 171.836800 -1.561432 158.350700 39.241090 -88.411560 45.660100 6.002532 4.395439 10.067720 -172.524100 -3.661621 154.370600 31.479720 -85.617800 62.500260 -0.199310 0.562927 27.841630 -167.441500 -8.891907 153.137200 48.977610 -83.530580 35.611880 -5.539795 0.809167 53.847270 
2.730493 3.952882 4.821448 135.824900 -56.449130 57.622840 -61.461180 4.834480 -62.366120 -119.353000 -30.976930 -6.669891 112.864000 -65.843260 54.817620 -4.562073 -8.459839 26.908520 149.289500 2.855054 -179.050700 41.978590 -86.125610 -41.325900 2.052631 1.705008 11.329600 171.819900 -1.563080 158.350400 39.240320 -88.411560 45.661880 6.002521 4.395450 10.067700 -172.511000 -3.658203 154.370300 31.479730 -85.617830 62.499520 -0.199280 0.562912 27.841550 -164.850100 -7.919250 151.771800 48.977580 -83.530610 35.860340 -5.539825 0.809191 55.660840 
2.728862 3.948564 4.816361 133.753000 -57.301330 58.843750 -61.461180 4.834470 -62.548920 -119.352900 -30.976930 -6.454803 112.864000 -65.843260 54.824150 -4.562073 -8.459808 26.908500 150.298200 2.888968 -179.033100 41.978370 -86.125610 -40.211000 2.052627 1.704991 12.179080 171.821600 -1.562927 158.345800 39.240570 -88.411190 45.660920 6.002523 4.395455 10.067710 -172.520900 -3.660767 154.368000 31.479570 -85.617740 62.501060 -0.199310 0.562926 27.841610 -165.888900 -8.311768 152.047400 48.977690 -83.530640 36.642850 -5.539795 0.809195 56.119630 
2.735203 3.959970 4.809855 132.042800 -57.138640 60.315980 -61.509890 4.939146 -65.151700 -119.429000 -30.952640 -6.911316 112.726500 -65.785280 55.795450 -4.436401 -8.449890 25.515620 152.623400 3.049975 -178.476000 44.008220 -86.029300 -39.038420 1.944750 1.701416 10.274930 173.144900 -1.406342 158.730400 43.279060 -88.377560 44.434890 6.099645 4.566212 13.498720 -171.352000 -3.383698 154.006100 32.061540 -85.559170 63.560950 -0.134949 0.410421 24.218930 -164.288500 -7.690704 152.227300 50.043190 -83.511470 37.686740 -5.797089 0.539319 49.510810 
2.741544 3.971375 4.803349 130.348100 -56.952240 61.772440 -61.550720 5.015862 -67.759460 -119.486600 -30.934840 -7.380585 112.625300 -65.740810 56.737790 -4.341949 -8.439728 24.118570 154.959200 3.181249 -177.938800 45.540900 -85.960450 -37.362300 1.863816 1.695601 8.367846 174.475400 -1.257050 159.100500 46.259560 -88.351470 44.271770 6.174752 4.693516 16.927210 -170.188600 -3.101196 153.632600 32.507550 -85.515810 64.758090 -0.077972 0.299146 20.579380 -162.682800 -7.066376 152.398300 50.845800 -83.499510 38.996050 -5.970734 0.317276 42.898850 
2.747884 3.982781 4.796844 128.670900 -56.742520 63.211020 -61.581700 5.065187 -70.370360 -119.525200 -30.923340 -7.861847 112.559600 -65.710420 57.650680 -4.279022 -8.430542 22.719890 157.303900 3.283939 -177.423300 46.596640 -85.918880 -35.205080 1.809969 1.688867 6.458901 175.812500 -1.114532 159.456000 48.252700 -88.336460 45.099530 6.226750 4.777510 20.353220 -169.031000 -2.813049 153.247600 32.817450 -85.487950 66.092240 -0.032318 0.228393 16.927690 -161.072900 -6.438599 152.560500 51.384800 -83.494420 40.570300 -6.067505 0.152969 36.284260 
2.754225 3.994186 4.790338 127.013300 -56.509980 64.629740 -61.600950 5.087815 -72.982670 -119.544800 -30.918090 -8.354340 112.528400 -65.694550 58.533820 -4.247803 -8.423462 21.322050 159.655700 3.359336 -176.931100 47.177610 -85.904140 -32.571040 1.783265 1.682585 4.549152 177.155600 -0.978394 159.796700 49.292500 -88.332580 46.882560 6.254623 4.818483 23.776850 -167.880000 -2.518982 152.851300 32.988080 -85.475040 67.565960 -0.001844 0.197050 13.268640 -159.459800 -5.807129 152.714100 51.658620 -83.495180 42.409820 -6.095276 0.055440 29.667890 
2.760566 4.005592 4.783833 125.376900 -56.255070 66.026790 -61.606720 5.084572 -75.594540 -119.545100 -30.918790 -8.857208 112.531100 -65.693510 59.386730 -4.248260 -8.419678 19.927590 162.012900 3.408871 -176.463700 47.269170 -85.914150 -29.447850 1.783679 1.678100 2.639703 178.504100 -0.848114 160.122200 49.377540 -88.339420 49.620810 6.257438 4.816804 27.198240 -166.736000 -2.218781 152.443800 33.014300 -85.476680 69.183910 0.009749 0.203540 9.607100 -157.844500 -5.171783 152.859200 51.665000 -83.500760 44.515640 -6.063019 0.032669 23.050880 
2.766907 4.016997 4.777327 123.763600 -55.978330 67.400600 -61.590480 5.060613 -74.716220 -119.486100 -30.934230 -9.449951 112.508600 -65.739620 59.906920 -4.166931 -8.739563 23.710910 161.141900 3.424880 -177.318500 47.527390 -85.989870 -30.942140 1.801876 1.716789 3.199416 178.631300 -0.847626 159.576100 49.133470 -88.363860 49.238720 6.176768 4.749783 28.556850 -166.217900 -2.078094 152.343600 32.790550 -85.493840 70.063320 -0.006592 0.257180 8.152211 -157.727100 -5.130432 152.539400 51.531460 -83.513490 43.862840 -6.084229 0.101797 26.425430 
2.773248 4.028403 4.770822 122.174600 -55.680390 68.749650 -61.574890 5.039695 -73.184630 -119.587500 -30.913640 -8.472870 112.573300 -65.763760 60.054890 -3.943359 -8.675415 27.098460 160.412000 3.427391 -178.102900 47.438070 -86.033360 -31.609340 1.822391 1.734176 3.516684 178.666700 -0.850922 159.074800 48.774700 -88.384460 49.016860 6.113049 4.698040 29.781550 -165.753700 -1.951202 152.254100 32.601750 -85.508730 70.842320 -0.022369 0.302128 6.842114 -157.705500 -5.124023 152.229100 51.398030 -83.525210 43.260920 -6.099579 0.171604 29.435320 
2.779588 4.039809 4.764316 120.611400 -55.361820 70.072680 -61.559880 5.018335 -71.650940 -119.663200 -30.897030 -7.505859 112.631800 -65.784970 60.209790 -3.777161 -8.624054 30.496490 159.681800 3.419924 -178.887800 47.250360 -86.070070 -32.179140 1.844033 1.747446 3.834239 178.702100 -0.853912 158.573400 48.275120 -88.401860 48.935570 6.059290 4.650808 31.008280 -165.289600 -1.823547 152.165600 32.425000 -85.522980 71.609440 -0.039185 0.343953 5.530859 -157.684000 -5.117523 151.918800 51.238120 -83.534640 42.684950 -6.099701 0.244706 32.452260 
2.785929 4.051214 4.757810 119.075000 -55.023250 71.368580 -61.545410 4.996562 -70.115630 -119.713100 -30.885070 -6.549744 112.683700 -65.803160 60.371590 -3.669037 -8.583862 33.904440 158.951300 3.402460 -179.672900 46.960570 -86.100370 -32.647640 1.866748 1.756620 4.151989 178.737500 -0.856567 158.072000 47.632090 -88.415890 48.997490 6.015641 4.607736 32.236800 -164.825700 -1.695190 152.078200 32.260660 -85.536680 72.364260 -0.056976 0.382619 4.218712 -157.662600 -5.110931 151.608500 51.051320 -83.541900 42.135600 -6.084351 0.319990 35.474530 
2.784199 4.062848 4.759002 120.331500 -54.719970 70.654070 -61.531490 4.974399 -68.579250 -119.737300 -30.878330 -5.605377 112.729100 -65.818240 60.540100 -3.619537 -8.553040 37.321720 158.220900 3.374995 179.542100 46.565940 -86.124080 -33.011750 1.890509 1.761675 4.469854 178.772900 -0.858917 157.570400 46.844380 -88.426670 49.203970 5.982219 4.568531 33.466880 -164.361900 -1.566101 151.991800 32.109120 -85.549710 73.106410 -0.075623 0.418100 2.905962 -157.641100 -5.104187 151.298200 50.837390 -83.546880 41.613080 -6.053314 0.396297 38.500320 
2.749518 3.957500 4.821038 144.028100 -62.026700 50.882280 -61.518220 4.951855 -67.042420 -119.735900 -30.877350 -4.673553 112.768000 -65.830260 60.715100 -3.629028 -8.529755 40.747730 157.490900 3.337541 178.757300 46.064900 -86.141170 -33.269710 1.915261 1.762603 4.787751 178.808400 -0.860962 157.068900 45.910950 -88.433780 49.556140 5.959161 4.532849 34.698280 -163.898400 -1.436310 151.906500 31.970290 -85.562260 73.835920 -0.095001 0.450377 1.592860 -157.619700 -5.097351 150.987800 50.596140 -83.549620 41.117760 -6.006500 0.472419 41.527880 
2.760941 4.034942 4.771764 143.010200 -53.489010 49.872170 -61.505550 4.928970 -65.505620 -119.709200 -30.882720 -3.755096 112.800300 -65.839110 60.896480 -3.697723 -8.512146 44.181910 156.761500 3.290112 177.973100 45.456320 -86.151730 -33.420140 1.940977 1.759392 5.105576 178.843900 -0.862701 156.567400 44.835630 -88.437010 50.050350 5.946572 4.500361 35.930740 -163.435100 -1.305847 151.822200 31.844800 -85.574190 74.552190 -0.115021 0.479412 0.279665 -157.598400 -5.090363 150.677500 50.327480 -83.550230 40.649720 -5.943909 0.547175 44.555400 
2.752441 4.036056 4.778694 145.217000 -53.853910 48.225470 -61.493470 4.905770 -63.969450 -119.657200 -30.894900 -2.850739 112.826000 -65.844880 61.083970 -3.825592 -8.498291 47.623620 156.032900 3.232737 177.189800 44.741100 -86.155580 -33.463710 1.967614 1.752024 5.423258 178.879400 -0.864136 156.065900 43.623080 -88.437010 50.681980 5.944519 4.470707 37.164030 -162.972000 -1.174683 151.739000 31.732760 -85.585720 75.255040 -0.135559 0.505189 -1.033325 -157.577100 -5.083282 150.367200 50.031170 -83.548520 40.209430 -5.865692 0.619388 47.581030 
2.743195 4.056539 4.755158 141.932000 -53.917940 50.460940 -61.482060 4.882260 -62.434420 -119.580300 -30.914370 -1.961243 112.845100 -65.847500 61.277340 -4.012573 -8.486267 51.072220 155.305500 3.165451 176.407500 43.920750 -86.152590 -33.401640 1.995127 1.740503 5.740694 178.914900 -0.865234 155.564500 42.279920 -88.432530 51.444620 5.953129 4.443583 38.397940 -162.509200 -1.042908 151.656900 31.634460 -85.596920 75.944180 -0.156555 0.527705 -2.345886 -157.555800 -5.076111 150.056900 49.707370 -83.544740 39.796770 -5.772034 0.687887 50.603050 
2.731149 4.066593 4.753520 142.483900 -54.337370 50.054880 -61.471310 4.858487 -60.901120 -119.478800 -30.941590 -1.087311 112.857700 -65.846980 61.476390 -4.258209 -8.474121 54.527160 154.579500 3.088302 175.626600 42.998230 -86.142580 -33.236690 2.023482 1.724825 6.057813 178.950400 -0.866058 155.063100 40.814750 -88.424440 52.329600 5.972444 4.418622 39.632220 -162.046600 -0.910461 151.575800 31.549740 -85.607510 76.619770 -0.177826 0.546959 -3.657715 -157.534600 -5.068787 149.746700 49.356070 -83.538760 39.411830 -5.663269 0.751510 53.619610 
